<svg viewBox="0 0 512 512" width="32" height="32" xmlns="http://www.w3.org/2000/svg" xmlns:xlink="http://www.w3.org/1999/xlink">
  <style>
    :root, .palette0 {color: currentColor;
      --color0: #fff;
      --color1: #000;
      --color2: #fff1bc;
      --color3: #ebff00;
      --color4: #ff684f;
      --color5: #23bbff;
      --color6: #ccd6dd;
      --color7: #66757f;
      --color8: #ffac33;
      --color9: #99aab5;
      --color10: #e7ff23;
      --color11: #a0041e;
      --color12: #55acee;
      --color13: #ffcc4d;
      --color14: #677032;
      --color15: #a3a364;
      --color16: #717735;
      --color17: #662113;
      --color18: #c1694f;
      --color19: #383a18;
      --color20: #464f25;
      --color21: #ffd983;
      --color22: #f4900c;
      --color23: #ffe8b6;
    }
  </style>
  <path fill="var(--color1, #000)" fill-opacity="0.12" d="M0 0h512v512H0z" />
  <path fill="var(--color0, #fff)" d="M256.05 20.283c-130.19 0-235.93 105.74-235.93 235.928 0 130.19 105.74 235.93 235.93 235.93 130.188 0 235.927-105.74 235.927-235.93 0-130.188-105.74-235.927-235.927-235.928zM256.05 38.979c120.084 0 217.23 97.146 217.23 217.23 0 33.477-7.556 65.166-21.048 93.47-0.143 0.3-0.28 0.604-0.425 0.904a214.243 214.243 0 0 1-2.065 4.158c-0.07 0.137-0.135 0.276-0.205 0.412-0.157 0.307-0.324 0.61-0.482 0.914a217.636 217.636 0 0 1-1.784 3.383c-0.475 0.882-0.968 1.756-1.457 2.632a217.963 217.963 0 0 1-69.363 75.018c-0.522 0.35-1.05 0.692-1.577 1.037-0.933 0.61-1.866 1.215-2.807 1.808-0.308 0.195-0.62 0.385-0.93 0.578a219.525 219.525 0 0 1-7.646 4.565l8e-3 6e-3c-29.154 16.603-62.537 26.643-98.154 28.138v-7e-3c-6.226 0.266-12.462 0.265-18.688 0v4e-3c-115.716-4.912-207.84-100.082-207.84-217.02 0-120.084 97.148-217.23 217.233-217.23zM255.984 57.165c-3.11 0-6.222 0.075-9.33 0.22l2e-3 51.344a158.771 158.771 0 0 1-23.955-3.255c-0.595-12.692-11.074-22.8-23.913-22.8-6.91 0-13.134 2.93-17.504 7.614a158.283 158.283 0 0 1-17.146-10.65 196.736 196.736 0 0 0-17.446 10.266 175.872 175.872 0 0 0 28.2 18.092c0.714 12.58 11.14 22.564 23.897 22.564 6.85 0 13.023-2.882 17.387-7.494a178.071 178.071 0 0 0 30.482 4.266v48.436c-24.646-0.303-49.197-1.807-72.945-4.5-2.235-11.778-12.58-20.688-25.01-20.688-9.724 0-18.173 5.454-22.462 13.47-14.295-2.777-28.034-6.06-41.074-9.816a197.447 197.447 0 0 0-9.012 16.897c15.228 4.59 31.32 8.52 48.034 11.79 3.002 10.72 12.838 18.587 24.515 18.587 8.88 0 16.694-4.547 21.25-11.438 56.1 6.688 116.216 6.68 172.304-0.025 4.554 6.905 12.377 11.465 21.267 11.465 11.696 0 21.545-7.89 24.53-18.635 16.618-3.26 32.623-7.173 47.77-11.736a197.858 197.858 0 0 0-9.01-16.896c-12.972 3.736-26.633 7.002-40.845 9.768-4.295-7.993-12.734-13.428-22.444-13.428-12.42 0-22.757 8.898-25.002 20.664-23.82 2.71-48.45 4.22-73.174 4.523v-48.436a178.16 178.16 0 0 0 30.67-4.305c4.366 4.633 10.553 7.53 17.422 7.53 12.797 0 23.25-10.043 23.91-22.677a175.934 175.934 0 0 0 27.95-17.965 197.641 197.641 0 0 0-17.44-10.268 157.705 157.705 0 0 1-16.99 10.563c-4.365-4.64-10.557-7.54-17.43-7.54-12.825 0-23.297 10.085-23.915 22.757a158.986 158.986 0 0 1-24.176 3.3l-2e-3-51.34a197.336 197.336 0 0 0-9.365-0.224zM255.99 213.892a42.187 42.187 0 0 0-42.326 42.324 42.186 42.186 0 0 0 42.326 42.328 42.187 42.187 0 0 0 42.324-42.328 42.183 42.183 0 0 0-42.324-42.324zM132.582 226.626c-12.642 0-23.3 8.46-26.646 20.02h-48.58a200.176 200.176 0 0 0 0 18.69h49.738c4.252 9.868 14.063 16.778 25.488 16.778 11.427 0 21.235-6.91 25.486-16.777h37.59a60.9 60.9 0 0 1 0.075-18.69h-36.506c-3.346-11.562-14.005-20.02-26.645-20.021zM379.646 226.626c-12.64 0-23.3 8.458-26.646 20.02h-36.754a60.9 60.9 0 0 1 0.074 18.69h37.838c4.25 9.867 14.06 16.778 25.488 16.778 11.426 0 21.236-6.91 25.487-16.78h49.48c0.29-6.225 0.29-12.462-2e-3-18.69h-48.32c-3.345-11.56-14.003-20.018-26.645-20.018zM363.526 304.831c-11.026 0-20.412 7.008-23.954 16.813-25.412-2.935-51.62-4.488-77.885-4.686a61.307 61.307 0 0 1-5.697 0.276c-1.92 0-3.82-0.1-5.695-0.275-26.182 0.2-52.31 1.74-77.647 4.657-3.55-9.788-12.93-16.78-23.943-16.78-13.715 0-24.894 10.846-25.437 24.43-16.388 3.234-32.176 7.105-47.127 11.612a197.724 197.724 0 0 0 9.005 16.884c14.103-4.064 29.046-7.557 44.6-10.473 4.66 5.2 11.427 8.474 18.96 8.474 10.258 0 19.094-6.07 23.127-14.81 24.33-2.828 49.526-4.404 74.822-4.714v48.444a177.912 177.912 0 0 0-29.125 3.95c-4.387-5.517-11.15-9.058-18.745-9.058-13.222 0-23.943 10.722-23.943 23.945 0 0.173 0.01 0.343 0.013 0.513a176.136 176.136 0 0 0-28.173 18.086 197.753 197.753 0 0 0 17.44 10.265 157.635 157.635 0 0 1 18.38-11.317 23.852 23.852 0 0 0 16.283 6.395c12.19 0 22.245-9.11 23.744-20.893a158.79 158.79 0 0 1 24.124-3.285l2e-3 51.36c6.226 0.29 12.462 0.292 18.688 0l-2e-3-51.36c8.176 0.48 16.322 1.585 24.36 3.33 1.518 11.76 11.564 20.848 23.737 20.848 6.252 0 11.94-2.398 16.205-6.322a157.813 157.813 0 0 1 18.222 11.233 197.395 197.395 0 0 0 17.44-10.268 176.181 176.181 0 0 0-27.942-17.96c6e-3-0.208 0.016-0.415 0.016-0.624 0-13.222-10.718-23.944-23.94-23.944-7.615 0-14.394 3.56-18.78 9.1a177.878 177.878 0 0 0-29.318-3.994v-48.444c25.382 0.31 50.664 1.895 75.07 4.74 4.04 8.726 12.867 14.782 23.113 14.782 7.515 0 14.267-3.256 18.928-8.434 15.472 2.907 30.34 6.385 44.375 10.428a197.444 197.444 0 0 0 9.002-16.887c-14.872-4.48-30.573-8.332-46.867-11.556-0.52-13.605-11.707-24.478-25.436-24.481z" />
</svg>