<svg viewBox="0 0 512 512" width="32" height="32" xmlns="http://www.w3.org/2000/svg" xmlns:xlink="http://www.w3.org/1999/xlink">
  <style>
    :root, .palette0 {color: currentColor;
      --color0: #fff;
      --color1: #000;
      --color2: #fff1bc;
      --color3: #ebff00;
      --color4: #ff684f;
      --color5: #23bbff;
      --color6: #ccd6dd;
      --color7: #66757f;
      --color8: #ffac33;
      --color9: #99aab5;
      --color10: #e7ff23;
      --color11: #a0041e;
      --color12: #55acee;
      --color13: #ffcc4d;
      --color14: #677032;
      --color15: #a3a364;
      --color16: #717735;
      --color17: #662113;
      --color18: #c1694f;
      --color19: #383a18;
      --color20: #464f25;
      --color21: #ffd983;
      --color22: #f4900c;
      --color23: #ffe8b6;
    }
  </style>
  <path fill="var(--color1, #000)" fill-opacity="0.12" d="M0 0h512v512H0z" />
  <path fill="var(--color0, #fff)" d="M229.832 24.166C169.087 23.868 108.817 50.45 68.12 101.72c-70.4 88.68-55.578 217.634 33.1 288.032a173.927 173.927 0 0 0 4.26 3.27c0.286 0.303 0.575 0.618 0.86 0.916-0.118-0.177-0.23-0.355-0.348-0.532 5.055 3.744 10.36 7.29 15.504 10.475a204.314 204.314 0 0 1-36.783-50.52c-26.065-64.267-15.236-129.285 32.96-161.24 58.434-38.76 151.118-15.176 215.06 51.675-3.942-5.902-8.413-12.113-13.016-17.834-63.682-79.235-166.368-109.6-229.362-67.817-1.072 0.71-2.122 1.442-3.158 2.185a205.696 205.696 0 0 1 18.953-28.418c65.31-82.274 181.148-100.695 268.36-46.756-5.63-5.66-11.95-11.454-18.358-16.54-37.412-29.7-81.992-44.23-126.32-44.45zM390.449 106.443c45.104 42.614 67.29 102.166 63.886 161.223-5.603 29.51-20.302 57.597-44.16 80.174-58.436 55.31-151.12 57.978-215.063 9.238 3.944 4.784 8.413 9.73 13.016 14.145 49.375 47.45 122.196 58.87 181.786 33.818-65.28 61.195-164.122 72.983-242.467 27.83 5.804 5.48 12.3 11.075 18.863 15.96 90.822 67.61 219.257 48.797 286.867-42.03 67.61-90.822 48.795-219.255-42.028-286.866-6.56-4.887-13.782-9.5-20.7-13.492z" />
</svg>