<svg viewBox="0 0 512 512" width="32" height="32" xmlns="http://www.w3.org/2000/svg" xmlns:xlink="http://www.w3.org/1999/xlink">
  <style>
    :root, .palette0 {color: currentColor;
      --color0: #fff;
      --color1: #000;
      --color2: #fff1bc;
      --color3: #ebff00;
      --color4: #ff684f;
      --color5: #23bbff;
      --color6: #ccd6dd;
      --color7: #66757f;
      --color8: #ffac33;
      --color9: #99aab5;
      --color10: #e7ff23;
      --color11: #a0041e;
      --color12: #55acee;
      --color13: #ffcc4d;
      --color14: #677032;
      --color15: #a3a364;
      --color16: #717735;
      --color17: #662113;
      --color18: #c1694f;
      --color19: #383a18;
      --color20: #464f25;
      --color21: #ffd983;
      --color22: #f4900c;
      --color23: #ffe8b6;
    }
  </style>
  <path fill="var(--color0, #fff)" d="M227.47 31.47c-67.048 70.547-83.972 178.936-32.907 267.467 51.07 88.544 153.333 128.083 247.906 105.22zM460.28 113.625a31.106 31.106 0 0 0-14.81 4.188c-11.303 6.53-17.02 19.035-15.44 31.218l-96.31 29.25 34.842 60.345L442 169.812c9.755 7.504 23.456 8.826 34.78 2.282 14.992-8.663 20.117-27.822 11.47-42.813-5.945-10.305-16.856-15.948-27.97-15.656zM148.406 221.125l-26.656 4.688 10.688 60.53-42.063 39.376 18.688 32.124 58.656-17.813 3.155 4.158L53.53 493.094h78.345l85.344-21.53 52.686 21.53h50.563l-7.064-45.78 0.813-0.22-0.97-0.625-4.75-30.72c-6.82-2.366-13.532-5.066-20.125-8.03l3.844 24.967-51-33.437 18.75-6.594a240.973 240.973 0 0 1-19.033-13.125l-19.375 6.814-39.625-26 5.813-7.375 15.156-9.658a242.342 242.342 0 0 1-24.53-35.03c-16-27.74-25.828-57.3-29.966-87.156zM170.312 375.095l29.094 19.06-61.062 21.5zM219.032 407.062l49.343 32.344-49.78 12.563-58.845-24.033zM124.219 433.594l5.718 2.312 58.125 23.75L82.75 486.22zM295.187 451.906l5.187 33.438-52.625-21.47 45.813-11.562z" />
</svg>