<svg viewBox="0 0 512 512" width="32" height="32" xmlns="http://www.w3.org/2000/svg" xmlns:xlink="http://www.w3.org/1999/xlink">
  <style>
    :root, .palette0 {color: currentColor;
      --color0: #fff;
      --color1: #000;
      --color2: #fff1bc;
      --color3: #ebff00;
      --color4: #ff684f;
      --color5: #23bbff;
      --color6: #ccd6dd;
      --color7: #66757f;
      --color8: #ffac33;
      --color9: #99aab5;
      --color10: #e7ff23;
      --color11: #a0041e;
      --color12: #55acee;
      --color13: #ffcc4d;
      --color14: #677032;
      --color15: #a3a364;
      --color16: #717735;
      --color17: #662113;
      --color18: #c1694f;
      --color19: #383a18;
      --color20: #464f25;
      --color21: #ffd983;
      --color22: #f4900c;
      --color23: #ffe8b6;
    }
  </style>
  <path fill="var(--color0, #fff)" d="M252.78 20.875c-1.302 0.012-2.6 0.03-3.905 0.063-37.928 0.974-76.148 11.153-111.28 31.437C25.164 117.285-13.41 261.322 51.5 373.75s208.946 151.036 321.375 86.125c77.7-44.86 120.1-127.513 117.47-211.406-3.563 65.847-35.898 128.573-91 169.374a217.993 217.993 0 0 1-35.814 25.844c-103.68 59.86-235.983 24.4-295.842-79.282-59.86-103.68-24.43-235.984 79.25-295.844 35.64-20.576 74.67-29.88 112.968-29.03 63.304 1.4 124.623 30.57 165.438 82.53l-32.594 23.032c-33.27-42.835-84.01-66.6-136.063-67-0.96-8e-3-1.91-0.012-2.875 0-0.964 0.01-1.943 0.038-2.906 0.062-28.006 0.717-56.222 8.215-82.156 23.188-82.99 47.914-111.508 154.322-63.594 237.312s154.32 111.51 237.313 63.594c51.37-29.66 81.862-81.724 86.28-136.78-12.53 45.37-42.32 86.745-85.438 114.186-0.02 0.013-0.043 0.018-0.062 0.03l-0.344 0.22a158.059 158.059 0 0 1-9.78 6.156c-74.245 42.865-168.918 17.494-211.782-56.75-42.864-74.243-17.493-168.917 56.75-211.78 23.2-13.396 48.39-20.122 73.375-20.782 47.953-1.266 95.138 19.858 125.968 59.156l-39.844 28.156c-20.232-24.32-50.055-37.79-80.594-38.03-1.17-0.01-2.33 0-3.5 0.03-17.035 0.432-34.176 4.995-49.938 14.094-50.435 29.12-67.806 93.877-38.687 144.313 29.12 50.434 93.908 67.806 144.344 38.686 21.245-12.267 36.623-30.85 45.124-52.03-18.815 21.064-44.364 36.888-73.938 44.155-0.04 0.013-0.084 0.02-0.125 0.033-37.507 10.787-78.796-4.816-99.217-40.188-24.07-41.688-9.845-94.712 31.843-118.78 13.028-7.523 27.143-11.314 41.156-11.69 25.66-0.685 50.898 10.098 68.188 30.25l-41 28.97c-5.497-4.796-12.664-7.72-20.53-7.72-17.277 0-31.283 14.007-31.283 31.282 0 17.276 14.004 31.282 31.282 31.282 17.277 0 31.28-14.007 31.28-31.283 0-1.187-0.06-2.347-0.188-3.5l120.094-57.312 4.03-1.75-0.06-0.156 62.25-29.72 9.25-4.438-5.282-8.812-19.97-33.375-5.155-8.625-8.25 5.813-8.095 5.718c-45.9-58.864-116.14-91.053-187.842-90.403z" />
</svg>