<svg viewBox="0 0 512 512" width="32" height="32" xmlns="http://www.w3.org/2000/svg" xmlns:xlink="http://www.w3.org/1999/xlink">
  <style>
    :root, .palette0 {color: currentColor;
      --color0: #fff;
      --color1: #000;
      --color2: #fff1bc;
      --color3: #ebff00;
      --color4: #ff684f;
      --color5: #23bbff;
      --color6: #ccd6dd;
      --color7: #66757f;
      --color8: #ffac33;
      --color9: #99aab5;
      --color10: #e7ff23;
      --color11: #a0041e;
      --color12: #55acee;
      --color13: #ffcc4d;
      --color14: #677032;
      --color15: #a3a364;
      --color16: #717735;
      --color17: #662113;
      --color18: #c1694f;
      --color19: #383a18;
      --color20: #464f25;
      --color21: #ffd983;
      --color22: #f4900c;
      --color23: #ffe8b6;
    }
  </style>
  <path fill="var(--color0, #fff)" d="M256 23C127.4 23 23 127.4 23 256s104.4 233 233 233 233-104.4 233-233S384.6 23 256 23zM222.3 43.63C190 66.85 163.6 92.25 143.2 119H90.26C122.9 79.54 169.4 51.95 222.3 43.63zM289.7 43.63c52.9 8.32 99.4 35.91 132 75.37h-52.9c-20.4-26.75-46.8-52.15-79.1-75.37zM229.5 60.61C219 80.42 210 99.85 202.5 119h-36.3c17.1-20.39 38.2-40 63.3-58.39zM282.5 60.61c25.1 18.39 46.2 38 63.3 58.39h-36.3c-7.5-19.15-16.5-38.58-27-58.39zM247 65.99V119h-25.1c7-17.3 15.4-34.95 25.1-53.01zM265 65.99c9.7 18.06 18.1 35.71 25.1 53.01H265zM76.89 137h53.51c-9.8 15-17.8 30.4-23.9 46H53.71c5.89-16.3 13.71-31.8 23.18-46zM152.1 137h43.8c-5.4 15.5-9.6 30.8-12.9 46h-57.1c6.7-15.6 15.5-30.9 26.2-46zM214.9 137H247v46h-45.6c3.4-15.2 7.9-30.5 13.5-46zM265 137h32.1c5.6 15.5 10.1 30.8 13.5 46H265zM316.1 137h43.8c10.7 15.1 19.5 30.4 26.2 46H329c-3.3-15.2-7.5-30.5-12.9-46zM381.6 137h53.5c9.5 14.2 17.3 29.7 23.2 46h-52.8c-6.1-15.6-14.1-31-23.9-46zM48.1 201h52.1c-4.63 15.2-7.5 30.6-8.64 46H41.2c0.65-15.8 3.01-31.2 6.9-46zM119 201h60.5c-2.5 15.4-3.9 30.7-4.4 46h-65.5c1.2-15.3 4.4-30.7 9.4-46zM197.8 201H247v46h-53.9c0.5-15.3 2-30.6 4.7-46zM265 201h49.2c2.7 15.4 4.2 30.7 4.7 46H265zM332.5 201H393c5 15.3 8.2 30.7 9.4 46h-65.5c-0.5-15.3-1.9-30.6-4.4-46zM411.8 201h52.1c3.9 14.8 6.2 30.2 6.9 46h-50.4c-1.1-15.4-4-30.8-8.6-46zM41.2 265h49.83c0.23 15.5 2.24 30.9 6.02 46H48.1c-3.89-14.8-6.25-30.2-6.9-46zM109 265h66.1c0.5 15.3 1.9 30.6 4.4 46h-63.9c-4.1-15.2-6.3-30.6-6.6-46zM193.1 265H247v46h-49.2c-2.7-15.4-4.2-30.7-4.7-46zM265 265h53.9c-0.5 15.3-2 30.6-4.7 46H265zM336.9 265H403c-0.3 15.4-2.5 30.8-6.6 46h-63.9c2.5-15.4 3.9-30.7 4.4-46zM421 265h49.8c-0.7 15.8-3 31.2-6.9 46H415c3.7-15.1 5.7-30.5 6-46zM53.71 329h48.69c5.4 15.7 12.8 31.1 22.1 46H76.89c-9.47-14.2-17.29-29.7-23.18-46zM121.4 329H183c3.3 15.2 7.5 30.5 12.9 46h-50c-10.4-14.9-18.5-30.3-24.5-46zM201.4 329H247v46h-32.1c-5.6-15.5-10.1-30.8-13.5-46zM265 329h45.6c-3.4 15.2-7.9 30.5-13.5 46H265zM329 329h61.6c-6 15.7-14.1 31.1-24.5 46h-50c5.4-15.5 9.6-30.8 12.9-46zM409.6 329h48.7c-5.9 16.3-13.7 31.8-23.2 46h-47.6c9.3-14.9 16.7-30.3 22.1-46zM90.26 393h46.64c20.3 27.1 47.3 52.3 80.9 74.6-51-9.1-95.8-36.3-127.54-74.6zM159.6 393h42.9c7.9 20.4 17.6 41 29 62.1-29.3-18.9-53.2-39.8-71.9-62.1zM221.9 393H247v53c-9.7-18-18.1-35.7-25.1-53zM265 393h25.1c-7 17.3-15.4 35-25.1 53zM309.5 393h42.9c-18.7 22.3-42.6 43.2-71.9 62.1 11.4-21.1 21.1-41.7 29-62.1zM375.1 393h46.6c-31.7 38.3-76.5 65.5-127.5 74.6 33.6-22.3 60.6-47.5 80.9-74.6z" />
</svg>