<svg viewBox="0 0 512 512" width="32" height="32" xmlns="http://www.w3.org/2000/svg" xmlns:xlink="http://www.w3.org/1999/xlink">
  <style>
    :root, .palette0 {color: currentColor;
      --color0: #fff;
      --color1: #000;
      --color2: #fff1bc;
      --color3: #ebff00;
      --color4: #ff684f;
      --color5: #23bbff;
      --color6: #ccd6dd;
      --color7: #66757f;
      --color8: #ffac33;
      --color9: #99aab5;
      --color10: #e7ff23;
      --color11: #a0041e;
      --color12: #55acee;
      --color13: #ffcc4d;
      --color14: #677032;
      --color15: #a3a364;
      --color16: #717735;
      --color17: #662113;
      --color18: #c1694f;
      --color19: #383a18;
      --color20: #464f25;
      --color21: #ffd983;
      --color22: #f4900c;
      --color23: #ffe8b6;
    }
  </style>
  <path fill="var(--color3, #ebff00)" d="M478.89 21.842c-6.434-0.113-15.047 3.628-24.242 12.822L328.912 160.4c0-7e-3 3e-3-0.015 4e-3-0.023l-60.228 60.228 0.01 0.01-12.727 12.727-0.01-0.01-22.657 22.658 0.01 0.01-12.44 12.44-0.01-0.01-30.884 30.884c0 5e-3 2e-3 0.01 4e-3 0.014l-55.656 55.656 22.627 22.627 320.32-320.32c18.827-18.825 14.79-35.217 1.615-35.449zM33.05 21.902c-13.176 0.232-17.213 16.623 1.614 35.45l185.912 185.912 22.658-22.66-44.164-44.16c0 0.02 0 0.038-2e-3 0.058L57.29 34.725C48.098 25.53 39.484 21.79 33.05 21.902zM267.588 58.292c-9.308 42.14-12.624 79.314-27.922 121.454-21.636-16.89-30.623-41.47-43.836-63.414 0.586 10.88 1.66 22.256 2.42 33.838l57.71 57.71 78.485-78.485a2474.362 2474.362 0 0 1 4.078-21.237c-21.27 28.796-42.452 44.68-71.396 73.475-6.752-45.418 0.278-77.923 0.461-123.341zM87.873 170.623c-0.052 3e-3-0.08 0.017-0.082 0.044-0.258 5.25 104.427 78.357 96.222 83.578-13.465 8.55-57.975 31.11-83.508 44.914 19.72-3.345 53.538-7.933 72.18-8.002l35.453-35.453-63.655-63.652c-27.027-10.216-54.915-21.568-56.61-21.429zM333.016 226.767 303.93 255.853l56.174 56.17c10.848 0.735 21.692 1.416 32.5 1.218-24.518-15.9-71.99-43.734-71.64-50.568 0.353-6.887 63.447-21.216 95.518-31.606-27.787-2.137-55.973 3.846-83.466-4.3zM291.203 268.579l-22.656 22.656 86.437 86.438 22.627-22.627-44.473-44.475h0.06zM256.105 303.677 198.402 361.38c0.408 14.207 0.21 28.454-0.52 40.38 11.322-26.84 17.846-51.86 45.827-74.473 14.444 11.985 24.816 40.267 37.224 60.4-0.91-19.042-6.873-52.002-5.03-64.214zM111.7 354.984 98.974 367.71l45.256 45.257 12.725-12.73-45.252-45.253zM400.238 355.044l-45.254 45.253v2e-3l12.727 12.727 45.257-45.256zM94.023 385.39l-9.9 9.9 32.527 32.526 9.9-9.9zM417.916 385.45l-32.527 32.527 9.9 9.9 32.526-32.527zM71.396 408.018 21.9 457.512l32.528 32.527 10.603-10.604 10.73 10.726 17.847-17.848-10.728-10.726 21.042-21.043-9.9-9.9-38.89 38.89-12.728-12.728 38.89-38.89zM440.546 408.078l-9.9 9.9 38.89 38.89-12.73 12.728-38.89-38.89-9.898 9.9 49.494 49.494 32.527-32.528-10.604-10.603 10.726-10.73-17.848-17.847-10.726 10.728z" />
</svg>