<svg viewBox="0 0 512 512" width="32" height="32" xmlns="http://www.w3.org/2000/svg" xmlns:xlink="http://www.w3.org/1999/xlink">
  <style>
    :root, .palette0 {color: currentColor;
      --color0: #fff;
      --color1: #000;
      --color2: #fff1bc;
      --color3: #ebff00;
      --color4: #ff684f;
      --color5: #23bbff;
      --color6: #ccd6dd;
      --color7: #66757f;
      --color8: #ffac33;
      --color9: #99aab5;
      --color10: #e7ff23;
      --color11: #a0041e;
      --color12: #55acee;
      --color13: #ffcc4d;
      --color14: #677032;
      --color15: #a3a364;
      --color16: #717735;
      --color17: #662113;
      --color18: #c1694f;
      --color19: #383a18;
      --color20: #464f25;
      --color21: #ffd983;
      --color22: #f4900c;
      --color23: #ffe8b6;
    }
  </style>
  <path fill="var(--color0, #fff)" d="M466.674 16.34 435.78 47.232l14.326 14.326L481 30.664zM34.418 445.184l46.577 46.577a13.32 13.32 0 0 0 20.618-2.213l60.15-93.456 51.144-21.74c0 0 2.487-22.322 3.033-30.12 0.763-10.805 3.966-22.05 11.633-29.718l162.948-162.95a21.086 21.086 0 0 0 0-29.82L347.958 79.18a17.516 17.516 0 0 0-24.772 0l-170.87 170.87a10.736 10.736 0 0 0 0 15.184l22.775 22.775L34.427 428.675a11.67 11.67 0 0 0-9e-3 16.509zM188.032 262.447c-5.962-5.963-4.907-16.68 2.392-23.98l125.273-125.274c7.262-7.262 18.018-8.354 23.98-2.392l6.31 6.31L194.344 268.76zM306.965 359.735l20.41-20.41 12.416-32.892-18.385-55.515 7.328-7.33 20.364 61.488a4.636 4.636 0 0 1-0.057 3.09l-13.31 35.405a4.636 4.636 0 0 1-1.063 1.65l-22.512 22.51c-0.282 0.283-23.952 18.885-23.952 18.885-22.107-10.37-32.467-38.345-26.12-56.56 2.827-8.12 0.04-12.98-4.643-15.194l20.798-20.797zM228.741 390.205l39.353 39.353-28.228 44.617-61.817-61.817zM423.837 65.375l8.13 8.13-29.737 29.734-8.13-8.128 29.708-29.708z" />
</svg>