<svg viewBox="0 0 512 512" width="32" height="32" xmlns="http://www.w3.org/2000/svg" xmlns:xlink="http://www.w3.org/1999/xlink">
  <style>
    :root, .palette0 {color: currentColor;
      --color0: #fff;
      --color1: #000;
      --color2: #fff1bc;
      --color3: #ebff00;
      --color4: #ff684f;
      --color5: #23bbff;
      --color6: #ccd6dd;
      --color7: #66757f;
      --color8: #ffac33;
      --color9: #99aab5;
      --color10: #e7ff23;
      --color11: #a0041e;
      --color12: #55acee;
      --color13: #ffcc4d;
      --color14: #677032;
      --color15: #a3a364;
      --color16: #717735;
      --color17: #662113;
      --color18: #c1694f;
      --color19: #383a18;
      --color20: #464f25;
      --color21: #ffd983;
      --color22: #f4900c;
      --color23: #ffe8b6;
    }
  </style>
  <path fill="var(--color0, #fff)" d="M256 136c60 75-45 45-165 45 51.292 17.097 90.22 30.17 118.125 41.25C164.385 236.653 103.75 249.25 16 256c87.75 6.75 148.386 19.347 193.125 33.75C181.22 300.83 142.293 313.903 91 331c120 0 225-30 165 45 19.66-9.83 42.34-19.584 64.218-30.468C345.538 362.998 364.79 376 399.906 376c48 0 96.093-48 96.093-120s-48.096-120-96.094-120c-35.35 0-54.58 12.824-80.157 30.468C297.983 155.658 275.542 145.773 256 136zM388.188 183.813c33.136 0 60 32.422 60 72.187s-26.864 72.188-60 72.188c-9.062 0-17.61-2.715-25.313-7.032C388.008 303.676 406 282.742 406 256c0-26.743-17.992-47.68-43.125-65.158 7.702-4.316 16.25-7.032 25.313-7.029z" />
</svg>