<svg viewBox="0 0 512 512" width="32" height="32" xmlns="http://www.w3.org/2000/svg" xmlns:xlink="http://www.w3.org/1999/xlink">
  <style>
    :root, .palette0 {color: currentColor;
      --color0: #fff;
      --color1: #000;
      --color2: #fff1bc;
      --color3: #ebff00;
      --color4: #ff684f;
      --color5: #23bbff;
      --color6: #ccd6dd;
      --color7: #66757f;
      --color8: #ffac33;
      --color9: #99aab5;
      --color10: #e7ff23;
      --color11: #a0041e;
      --color12: #55acee;
      --color13: #ffcc4d;
      --color14: #677032;
      --color15: #a3a364;
      --color16: #717735;
      --color17: #662113;
      --color18: #c1694f;
      --color19: #383a18;
      --color20: #464f25;
      --color21: #ffd983;
      --color22: #f4900c;
      --color23: #ffe8b6;
    }
  </style>
  <path fill="var(--color0, #fff)" d="M227.7 25 169.8 82.96 183.4 151h145.2l13.6-68.04-32.8-32.84L282.5 64l16.3-24.53L284.3 25zM195 88.44 240 111l-4 17h-41zM317 88.44V128h-41l-4-17 32-16.05zM154 109.1l-22 11 10.6 17.1-24.1-10.4L73 149.6v16l91.8-13.1zM358 109.1l-10.8 43.4 91.8 13.1v-16zM205.6 169.2l-63.3 4.7-6.6 1-9.2 62.3 50.2 25.1 44.5-14.8 5.6 17-51.5 17.2-44.4-22.2 20.4 84.5 95.7 13.6V196.8zM306.4 169.2 265 196.8v160.8l95.7-13.6 20.4-84.5-23.8 11.9-19.6 38.6-18.8-34.2-33.7-11.3 5.6-17 44.5 14.8 50.2-25.1-9.2-62.3-6.6-1zM116.8 177.6l-61.32 8.7-30.04 40.1 3.64 25.5 25.38 10.4L33.09 280l6.47 45.3 63.44-12.6v-57.4zM395.2 177.6 409 255.2v57.4l52 10.4 13.7-13.7 11.9-82.9-30.1-40.1-28-4-4.2 17.9-9.9-19.9zM104.1 330.8 42.78 343l28 126 47.42-11.8zM407.9 330.8 393.8 457.2l22.6 5.6 7.9-25.8 17.8 28.1 27.1-122.1zM151.9 362.2 138.1 487h80.3l37.6-75.1 37.6 75.1h30.8l11.6-23 11.5 23h26.4l-13.8-124.8L256 377.1l-41.9-6-6.1 34.4-15.3-37.5z" />
</svg>