<svg viewBox="0 0 36 36" fill="var(--color6, #ccd6dd)" width="32" height="32" xmlns="http://www.w3.org/2000/svg" xmlns:xlink="http://www.w3.org/1999/xlink">
  <style>
    :root, .palette0 {color: currentColor;
      --color0: #fff;
      --color1: #000;
      --color2: #fff1bc;
      --color3: #ebff00;
      --color4: #ff684f;
      --color5: #23bbff;
      --color6: #ccd6dd;
      --color7: #66757f;
      --color8: #ffac33;
      --color9: #99aab5;
      --color10: #e7ff23;
      --color11: #a0041e;
      --color12: #55acee;
      --color13: #ffcc4d;
      --color14: #677032;
      --color15: #a3a364;
      --color16: #717735;
      --color17: #662113;
      --color18: #c1694f;
      --color19: #383a18;
      --color20: #464f25;
      --color21: #ffd983;
      --color22: #f4900c;
      --color23: #ffe8b6;
    }
  </style>
  <path fill="var(--color9, #99aab5)" d="M10.746 21.521c1.668 0 7.43 4.345 7.427 9.701 3e-3 5.358-14.853 5.358-14.854-1e-3 1e-3-5.356 5.759-9.7 7.427-9.7z" />
  <path d="M8.541 25.182c8.839 8.84 17.337 5.163 20.033 2.469 2.695-2.696-0.158-9.916-6.371-16.129C15.988 5.308 8.767 2.455 6.072 5.15s-6.371 11.193 2.469 20.032z" />
  <path fill="var(--color7, #66757f)" d="M12.443 21.278c6.214 6.214 13.434 9.066 16.13 6.372 2.695-2.696-0.158-9.916-6.371-16.129C15.988 5.308 8.767 2.455 6.072 5.15s0.158 9.916 6.371 16.128z" />
  <path d="M22.202 11.521c0.443 0.444 0.443 1.163 0 1.607l-7.233 7.231c-0.444 0.444-1.163 0.444-1.607 0-0.444-0.443-0.444-1.163 0-1.607l7.232-7.231c0.445-0.444 1.163-0.444 1.608 0z" />
  <path d="M23.809 9.915c0.887 0.887 0.887 2.327 0 3.214-0.888 0.888-2.327 0.888-3.215 0-0.887-0.887-0.887-2.327 0-3.214 0.887-0.889 2.327-0.889 3.215 0z" />
  <path fill="var(--color8, #ffac33)" d="M28.287 13.078l-0.051-1e-3c-0.552-0.027-0.976-0.497-0.949-1.048 1e-3-0.016 0.063-2.157-1.58-3.8-1.638-1.637-3.772-1.579-3.801-1.58-0.55 0.033-1.021-0.398-1.049-0.948-0.027-0.552 0.397-1.022 0.949-1.049 0.122-0.012 3.028-0.123 5.314 2.163 2.287 2.288 2.17 5.191 2.164 5.314-0.026 0.533-0.468 0.949-0.997 0.949z" />
  <path fill="var(--color8, #ffac33)" d="M31.846 12.522c-0.109 0-0.221-0.019-0.33-0.057-0.521-0.183-0.796-0.753-0.613-1.274 0.034-0.107 0.893-2.876-2.195-5.963-3.126-3.127-6.126-2.414-6.252-2.382-0.529 0.137-1.077-0.184-1.216-0.715-0.14-0.531 0.172-1.074 0.701-1.217 0.17-0.046 4.205-1.077 8.181 2.901 4.016 4.014 2.726 7.876 2.668 8.039-0.144 0.41-0.531 0.668-0.944 0.668z" />
  <path fill="var(--color7, #66757f)" d="M10.914 32.521c-2.9 0-5.543-0.658-7.566-1.737-8e-3 0.146-0.029 0.29-0.029 0.438 1e-3 5.359 14.857 5.359 14.854 1e-3 0-0.09-0.015-0.177-0.018-0.266-1.977 0.976-4.496 1.564-7.241 1.564z" />
</svg>