<svg viewBox="0 0 512 512" width="32" height="32" xmlns="http://www.w3.org/2000/svg" xmlns:xlink="http://www.w3.org/1999/xlink">
  <style>
    :root, .palette0 {color: currentColor;
      --color0: #fff;
      --color1: #000;
      --color2: #fff1bc;
      --color3: #ebff00;
      --color4: #ff684f;
      --color5: #23bbff;
      --color6: #ccd6dd;
      --color7: #66757f;
      --color8: #ffac33;
      --color9: #99aab5;
      --color10: #e7ff23;
      --color11: #a0041e;
      --color12: #55acee;
      --color13: #ffcc4d;
      --color14: #677032;
      --color15: #a3a364;
      --color16: #717735;
      --color17: #662113;
      --color18: #c1694f;
      --color19: #383a18;
      --color20: #464f25;
      --color21: #ffd983;
      --color22: #f4900c;
      --color23: #ffe8b6;
    }
  </style>
  <path fill="var(--color0, #fff)" d="M220.324 73.05a185.61 185.61 0 0 0-15.28 0.925c38.583 92.843 40.53 149.816 41.948 194.722 13.665-0.22 27.327-0.79 40.985-1.726-0.867-86.935-37.327-165.248-67.653-193.921zM260.869 76.713c27.632 13.237 52.446 35.57 72.437 60.955l18.207-12.98c-24.553-23.846-55.78-40.86-90.644-47.975zM186.706 76.803C105.784 93.517 44.517 163.548 41.16 248.64 103.895 261 166.49 268.4 228.994 268.77c-1.395-45.53-3.087-99.25-42.288-191.967zM430.774 91.346a15.324 15.324 0 0 0-5.462 0.853c-5.536 1.94-10 7.087-12.463 15.51-2.464 8.425-2.434 19.664 1.22 30.987 3.655 11.323 10.147 20.295 16.994 25.455 6.848 5.16 13.388 6.453 18.924 4.512 5.536-1.94 9.998-7.087 12.46-15.512 2.464-8.424 2.437-19.663-1.218-30.986-1.744-5.406-4.14-10.268-6.91-14.443a15.318 9.72 76.94 0 0-6.146-7.575 38.302 38.302 0 0 0-3.94-3.44c-4.707-3.547-9.268-5.265-13.459-5.361zM436.579 100.203a28.954 18.568 76.585 0 1 3.45 0.305 15.318 9.72 76.94 0 0-2.934 17.04 15.318 9.72 76.94 0 0 13.416 11.14 15.318 9.72 76.94 0 0 5.744-12.774 28.954 18.568 76.585 0 1 2.34 6.106 28.954 18.568 76.585 0 1-9.225 34.36 28.954 18.568 76.585 0 1-25.64-21.05 28.954 18.568 76.585 0 1 9.223-34.357 28.954 18.568 76.585 0 1 3.626-0.77zM393.356 116.965l-13.67 9.744c-0.292 19.73 3.38 31.84 8.604 41.048 5.153 9.08 12.31 15.71 20.147 23.537l16.1-9.61a48.733 48.733 0 0 1-4.305-2.892c-10.227-7.708-18.465-19.618-23.152-34.14-3.023-9.367-4.227-18.796-3.724-27.687zM362.091 139.255l-64.63 46.073c5.126 19.47 9.352 43.4 10.077 66.193l84.907-50.68c-6.756-6.63-14-13.953-19.812-24.2-5.47-9.64-9.332-21.66-10.542-37.386zM402.548 215.771l-22.27 13.292c2.23 8.957 3.495 17.38 3.683 24.963a702.62 702.62 0 0 0 22.89-5.056c-0.43-11.366-1.9-22.46-4.303-33.199zM41 266.794v30.127c122.077 29.426 243.923 29.426 366 0v-29.6c-122.274 28.494-244.39 23.097-366-0.527zM41 315.44v157.04a1222.427 1222.427 0 0 0 53 9.106V426c4.292-6.5 12.224-9.7 20.72-9.865 12.42-0.244 26.045 5.99 31.28 17.865v54.055c87.183 8.608 174.138 5.576 261-15.207v-157.41c-121.928 28.724-244.072 28.724-366 2e-3zM370.984 403.17c6.89 0.014 13.016 3.185 13.016 10.185v32l-32 4v-32c0-9 10.125-14.203 18.984-14.185zM289.498 414.953C296.968 414.955 304 418.5 304 426v32l-32 2v-32c0-8.5 9.03-13.05 17.498-13.047zM208 420c8 0 16 4 16 12v32h-32v-32c0-8 8-12 16-12z" />
</svg>