<svg viewBox="0 0 512 512" width="32" height="32" xmlns="http://www.w3.org/2000/svg" xmlns:xlink="http://www.w3.org/1999/xlink">
  <style>
    :root, .palette0 {color: currentColor;
      --color0: #fff;
      --color1: #000;
      --color2: #fff1bc;
      --color3: #ebff00;
      --color4: #ff684f;
      --color5: #23bbff;
      --color6: #ccd6dd;
      --color7: #66757f;
      --color8: #ffac33;
      --color9: #99aab5;
      --color10: #e7ff23;
      --color11: #a0041e;
      --color12: #55acee;
      --color13: #ffcc4d;
      --color14: #677032;
      --color15: #a3a364;
      --color16: #717735;
      --color17: #662113;
      --color18: #c1694f;
      --color19: #383a18;
      --color20: #464f25;
      --color21: #ffd983;
      --color22: #f4900c;
      --color23: #ffe8b6;
    }
  </style>
  <path fill="var(--color0, #fff)" d="M258.406 18.438c-0.594 5e-3-1.188 0.016-1.78 0.03-4.582 0.54-10.147 4.075-16.407 12.626-6.845 9.348-13.726 24.012-19.595 42.562-11.095 35.068-18.797 84.06-20.875 139.156h115.97c-2.074-55.1-9.715-104.116-20.75-139.187-5.84-18.552-12.682-33.186-19.5-42.53-6.38-8.744-12.024-12.244-16.658-12.657h-0.03c-0.13-0.012-0.25 6e-3-0.375 0zM292.876 23.375c7.703 11.57 14.235 26.638 19.905 44.656 11.827 37.58 19.622 88.07 21.69 144.782h82.186c-5.11-53.913-23.635-101.762-50.53-136.25-20.543-26.34-45.61-44.862-73.251-53.188zM221.938 24.688c-26.084 8.878-49.815 26.88-69.438 51.906-27.044 34.492-45.688 82.318-50.813 136.22H181c2.07-56.723 9.923-107.235 21.813-144.814 5.487-17.345 11.767-31.93 19.125-43.312zM166.718 35.125C89.632 65.053 33.103 132.255 21.814 212.813H82.72c5.16-57.906 25.177-109.596 55.093-147.75 8.792-11.214 18.473-21.27 28.905-29.938zM357 39.405c8.533 7.657 16.522 16.26 23.875 25.69 29.76 38.16 49.604 89.83 54.75 147.718h55.188C480.065 135.882 428.495 71.15 357 39.405zM28.844 231.5 195.47 414.094a62.443 62.443 0 0 0-2.126 16.156c0 34.666 28.303 62.97 62.97 62.97 34.664 0 62.967-28.304 62.967-62.97 0-5.585-0.746-10.993-2.124-16.156L483.75 231.5h-25.28L308.78 395.53a62.929 62.929 0 0 0-5.25-6.81l95.345-157.22H377.03l-87.967 145.03a62.78 62.78 0 0 0-10.282-5.06L315.5 231.5h-19.313l-35.656 135.938a62.638 62.638 0 0 0-4.217-0.157 62.7 62.7 0 0 0-4.22 0.158L216.44 231.5h-19.344l36.75 139.97a62.68 62.68 0 0 0-10.28 5.06l-87.97-145.03H113.72l95.374 157.22a63.311 63.311 0 0 0-5.25 6.81L54.156 231.5zM247.656 386.813v33.5h-34.5c3.852-16.97 17.342-30.143 34.5-33.5zM266.344 387.125c16.494 3.782 29.378 16.678 33.125 33.188h-33.126zM212.906 439h34.75v34.688c-17.56-3.437-31.276-17.14-34.75-34.688zM266.344 439h33.375c-3.383 17.08-16.484 30.5-33.376 34.375z" />
</svg>