<svg viewBox="0 0 512 512" width="32" height="32" xmlns="http://www.w3.org/2000/svg" xmlns:xlink="http://www.w3.org/1999/xlink">
  <style>
    :root, .palette0 {color: currentColor;
      --color0: #fff;
      --color1: #000;
      --color2: #fff1bc;
      --color3: #ebff00;
      --color4: #ff684f;
      --color5: #23bbff;
      --color6: #ccd6dd;
      --color7: #66757f;
      --color8: #ffac33;
      --color9: #99aab5;
      --color10: #e7ff23;
      --color11: #a0041e;
      --color12: #55acee;
      --color13: #ffcc4d;
      --color14: #677032;
      --color15: #a3a364;
      --color16: #717735;
      --color17: #662113;
      --color18: #c1694f;
      --color19: #383a18;
      --color20: #464f25;
      --color21: #ffd983;
      --color22: #f4900c;
      --color23: #ffe8b6;
    }
  </style>
  <path fill="var(--color0, #fff)" d="M215.078 20.037 100.754 135.693l52.133 79.313L21 491.963 296.824 359.53l79.42 52.784L491 297.088zM317.115 41.922 296.033 63.096l16.865 16.933 21.088-21.17zM447.825 46.174l-84.32 84.666 16.862 16.94 84.328-84.667zM371.932 54.637 329.775 96.973l16.864 16.933 42.165-42.334zM439.395 122.381l-42.155 42.33 16.862 16.938 42.164-42.334zM452.053 177.419l-21.08 21.17 16.863 16.933 21.088-21.166zM245.527 244.284c6.308 0.15 11.87 2.175 15.924 6.244 11.794 11.843 6.35 36.51-12.16 55.098-18.51 18.585-43.08 24.056-54.872 12.22-11.793-11.847-6.345-36.517 12.168-55.1 12.146-12.2 26.9-18.747 38.94-18.462z" />
</svg>