<svg viewBox="0 0 36 36" width="32" height="32" xmlns="http://www.w3.org/2000/svg" xmlns:xlink="http://www.w3.org/1999/xlink">
  <style>
    :root, .palette0 {color: currentColor;
      --color0: #fff;
      --color1: #000;
      --color2: #fff1bc;
      --color3: #ebff00;
      --color4: #ff684f;
      --color5: #23bbff;
      --color6: #ccd6dd;
      --color7: #66757f;
      --color8: #ffac33;
      --color9: #99aab5;
      --color10: #e7ff23;
      --color11: #a0041e;
      --color12: #55acee;
      --color13: #ffcc4d;
      --color14: #677032;
      --color15: #a3a364;
      --color16: #717735;
      --color17: #662113;
      --color18: #c1694f;
      --color19: #383a18;
      --color20: #464f25;
      --color21: #ffd983;
      --color22: #f4900c;
      --color23: #ffe8b6;
    }
  </style>
  <path fill="var(--color20, #464f25)" d="M33 15C32.013 7.414 28.398 1 18 1S3.987 7.414 3 15c-0.152 1.169-2 2-2 6 0 2 1.366 3.564 3 4 3.105 0.829 3-1 14-1s10.895 1.829 14 1c1.634-0.436 3-2 3-4 0-4-1.848-4.831-2-6z" />
  <path fill="var(--color19, #383a18)" d="M18 15.068C7.602 15.068 2.001 17 2.001 21c0 2 0.365-0.176 1.999 0.261 3.105 0.829 3-2.317 14-2.317s10.895 3.146 14 2.317C33.634 20.824 33.999 23 33.999 21c0-4-5.601-5.932-15.999-5.932z" />
  <path fill="var(--color18, #c1694f)" d="M18 33.966C8.733 33.966 4.034 29.94 4.034 22S8.733 10.034 18 10.034c9.268 0 13.966 4.026 13.966 11.966S27.268 33.966 18 33.966zM18 11.966C9.79 11.966 5.966 15.154 5.966 22S9.79 32.034 18 32.034 30.034 28.846 30.034 22 26.21 11.966 18 11.966z" />
  <path fill="var(--color17, #662113)" d="M24 32c0 1.657-2.686 3-6 3s-6-1.343-6-3 2.686-1 6-1 6-0.657 6 1z" />
  <path fill="var(--color16, #717735)" d="M33 15C32.013 7.414 28.398 1 18 1S3.987 7.414 3 15c-0.152 1.169-2 2-2 6 0 2 1.366 3.564 3 4 0-4 0-8 14-8s14 4 14 8c1.634-0.436 3-2 3-4 0-4-1.848-4.831-2-6z" />
  <path fill="var(--color15, #a3a364)" d="M18 13c-7 0-17 1-17 8 0 2 1.366 3.564 3 4 0-4 0-8 14-8s14 4 14 8c1.634-0.436 3-2 3-4 0-7-11-8-17-8z" />
  <path fill="var(--color14, #677032)" d="M18 16C7.602 16 1 17 1 21c0 2 1.366 3.564 3 4 0-4 0-8 14-8s14 4 14 8c1.634-0.436 3-2 3-4 0-4-6.602-5-17-5z" />
</svg>