<svg viewBox="0 0 512 512" width="32" height="32" xmlns="http://www.w3.org/2000/svg" xmlns:xlink="http://www.w3.org/1999/xlink">
  <style>
    :root, .palette0 {color: currentColor;
      --color0: #fff;
      --color1: #000;
      --color2: #fff1bc;
      --color3: #ebff00;
      --color4: #ff684f;
      --color5: #23bbff;
      --color6: #ccd6dd;
      --color7: #66757f;
      --color8: #ffac33;
      --color9: #99aab5;
      --color10: #e7ff23;
      --color11: #a0041e;
      --color12: #55acee;
      --color13: #ffcc4d;
      --color14: #677032;
      --color15: #a3a364;
      --color16: #717735;
      --color17: #662113;
      --color18: #c1694f;
      --color19: #383a18;
      --color20: #464f25;
      --color21: #ffd983;
      --color22: #f4900c;
      --color23: #ffe8b6;
    }
  </style>
  <path fill="var(--color0, #fff)" d="M211.094 18.22l17.78 206.718c1.396 4.615 4.75 8.424 10.282 11.437 5.727 3.118 13.512 4.998 21.313 5.094 7.8 0.094 15.58-1.622 21.28-4.657 5.534-2.947 8.975-6.744 10.5-11.907L312.438 18.22zM85.25 63.062c-40.11 30.075-64.656 70.49-64.656 115.187 0 31.222 11.98 60.44 32.843 85.47L80.5 185.686C68.655 167.852 62 147.913 62 126.907c0-23.173 9.034-44.668 23.25-63.845zM426.875 63.062c14.216 19.176 23.25 40.67 23.25 63.843 0 19.982-6.033 39-16.813 56.156l27.438 79.063c20.204-24.675 31.813-53.31 31.813-83.875 0-44.694-25.58-85.112-65.688-115.187zM201.969 130.312c-35.98 34.695-59.156 62.41-73.782 94.937-21.686 48.224-26.258 110.186-26.407 225.625 40.794 21.668 83.415 34.732 126.032 39.313L240.845 337c-30.494-1.353-61.36-6.13-93.78-14.813l-10.283-2.75 4.032-9.843 10.22-24.906 3.124-7.594 7.938 2.125c64.732 17.335 129.757 16.785 192.437 0l8.126-2.19 3 7.876 9.53 24.906 3.72 9.688-10.03 2.688c-30.79 8.245-60.544 13.044-90.313 14.625L292 490.655c44.065-4.092 87.078-17.352 126.906-39.625-0.21-109.113-6.404-168.732-29.03-217.655-14.74-31.87-37.205-60.405-70.313-95.656l-8.813 90.06-0.063 0.782-0.218 0.75c-2.947 10.986-10.776 19.12-19.94 24-9.162 4.88-19.768 6.973-30.28 6.844-10.512-0.128-21.015-2.466-30.03-7.375-9.017-4.908-16.738-12.812-19.595-23.468l-0.22-0.812-0.06-0.813zM103.437 176.592 62.5 294.657l26.188 12.094c4.09-35.45 10.974-63.666 22.437-89.156 5.163-11.48 11.203-22.296 18.25-32.875zM411.28 176.592l-27.655 8.657c9.077 13.12 16.76 26.313 23.22 40.28 10.882 23.532 18.13 48.933 22.842 79.532l22.563-10.406z" />
</svg>