<svg viewBox="0 0 36 36" width="32" height="32" xmlns="http://www.w3.org/2000/svg" xmlns:xlink="http://www.w3.org/1999/xlink">
  <style>
    :root, .palette0 {color: currentColor;
      --color0: #fff;
      --color1: #000;
      --color2: #fff1bc;
      --color3: #ebff00;
      --color4: #ff684f;
      --color5: #23bbff;
      --color6: #ccd6dd;
      --color7: #66757f;
      --color8: #ffac33;
      --color9: #99aab5;
      --color10: #e7ff23;
      --color11: #a0041e;
      --color12: #55acee;
      --color13: #ffcc4d;
      --color14: #677032;
      --color15: #a3a364;
      --color16: #717735;
      --color17: #662113;
      --color18: #c1694f;
      --color19: #383a18;
      --color20: #464f25;
      --color21: #ffd983;
      --color22: #f4900c;
      --color23: #ffe8b6;
    }
  </style>
  <path fill="var(--color12, #55acee)" d="M35.782 24.518c-0.13-0.438-0.422-0.799-0.821-1.016-0.802-0.436-1.879-0.116-2.316 0.683-1.797 3.296-4.771 5.695-8.372 6.757-3.563 1.051-7.437 0.634-10.698-1.144-2.558-1.394-4.419-3.699-5.242-6.493-0.74-2.514-0.495-5.016 0.552-7.033-0.363 1.605-0.313 3.285 0.164 4.908 0.737 2.507 2.407 4.575 4.701 5.823 2.733 1.492 5.989 1.841 8.979 0.961 3.025-0.892 5.521-2.906 7.026-5.672 1.832-3.358 2.246-7.228 1.165-10.898-1.08-3.669-3.524-6.698-6.883-8.529-4.053-2.208-8.872-2.725-13.299-1.419-4.477 1.318-8.172 4.3-10.406 8.397-0.451 0.826-0.145 1.865 0.681 2.317 0.804 0.439 1.884 0.117 2.319-0.682 1.795-3.295 4.768-5.694 8.371-6.755 3.563-1.048 7.438-0.634 10.699 1.142 2.556 1.394 4.416 3.7 5.239 6.495 0.741 2.514 0.496 5.017-0.552 7.033 0.363-1.604 0.315-3.285-0.162-4.911-0.739-2.504-2.409-4.573-4.702-5.824-2.734-1.49-5.99-1.838-8.98-0.959-3.022 0.89-5.518 2.904-7.025 5.671-1.832 3.357-2.245 7.227-1.165 10.897 1.081 3.671 3.525 6.7 6.883 8.529 2.567 1.4 5.451 2.141 8.341 2.141 1.669 0 3.337-0.242 4.958-0.72 4.477-1.317 8.173-4.301 10.406-8.399 0.219-0.399 0.269-0.862 0.139-1.3zM16.784 14.002c0.373-0.11 0.758-0.166 1.143-0.166 1.779 0 3.372 1.193 3.875 2.901 0.629 2.138-0.599 4.39-2.737 5.02-0.373 0.11-0.757 0.166-1.142 0.166-1.778 0-3.372-1.193-3.875-2.902-0.63-2.137 0.598-4.389 2.736-5.019z" />
</svg>