<svg viewBox="0 0 512 512" width="32" height="32" xmlns="http://www.w3.org/2000/svg" xmlns:xlink="http://www.w3.org/1999/xlink">
  <style>
    :root, .palette0 {color: currentColor;
      --color0: #fff;
      --color1: #000;
      --color2: #fff1bc;
      --color3: #ebff00;
      --color4: #ff684f;
      --color5: #23bbff;
      --color6: #ccd6dd;
      --color7: #66757f;
      --color8: #ffac33;
      --color9: #99aab5;
      --color10: #e7ff23;
      --color11: #a0041e;
      --color12: #55acee;
      --color13: #ffcc4d;
      --color14: #677032;
      --color15: #a3a364;
      --color16: #717735;
      --color17: #662113;
      --color18: #c1694f;
      --color19: #383a18;
      --color20: #464f25;
      --color21: #ffd983;
      --color22: #f4900c;
      --color23: #ffe8b6;
    }
  </style>
  <path fill="var(--color0, #fff)" d="M406 27.594l-23.625 76.187-5.844 28.97-52.25 47.844-51.5-43.125-23.405-4.095c8.217-14.33 14.685-32.77 16.406-49.594 10.02-2.28 20.516-5.426 31.69-9.81l-36.283-16.564c-1.964-7.07-16.546-28.484-31.406-27.28h-0.03c-18.2 4.6-25.82 25.298-28.72 40.718L176.5 90.53c7.87-0.307 15.58-0.415 23.344-0.53 0.66 14.1 4.4 27.847 9.97 36.375l-35.158-6.125L106 195.906l77.344 55.875 1.625 16.845-34.19 215.75h38.376l38.313-169.25 47.874 169.25h37.47l-3.564-16.406 17.094 16.405 63.062-322.53c5.01-4.54 9.265-8.483 12.094-11.314 0.177-10.537-2.537-18.942-5.094-24.5l1.125-5.686zM182.844 153.374l0.344 64.095-31.5-23.75zM270.874 174.624l50.876 45.94c0 0 22.993-19.458 44.875-38.533l-57.438 285.564-42.812-197.53z" />
</svg>