<svg viewBox="0 0 36 36" fill="var(--color21, #ffd983)" width="32" height="32" xmlns="http://www.w3.org/2000/svg" xmlns:xlink="http://www.w3.org/1999/xlink">
  <style>
    :root, .palette0 {color: currentColor;
      --color0: #fff;
      --color1: #000;
      --color2: #fff1bc;
      --color3: #ebff00;
      --color4: #ff684f;
      --color5: #23bbff;
      --color6: #ccd6dd;
      --color7: #66757f;
      --color8: #ffac33;
      --color9: #99aab5;
      --color10: #e7ff23;
      --color11: #a0041e;
      --color12: #55acee;
      --color13: #ffcc4d;
      --color14: #677032;
      --color15: #a3a364;
      --color16: #717735;
      --color17: #662113;
      --color18: #c1694f;
      --color19: #383a18;
      --color20: #464f25;
      --color21: #ffd983;
      --color22: #f4900c;
      --color23: #ffe8b6;
    }
  </style>
  <circle fill="var(--color22, #f4900c)" cx="18" cy="19" r="17" />
  <circle fill="var(--color13, #ffcc4d)" cx="18" cy="17" r="17" />
  <circle fill="var(--color23, #ffe8b6)" cx="18" cy="18" r="14" />
  <circle fill="var(--color8, #ffac33)" cx="18" cy="17" r="14" />
  <path fill="var(--color23, #ffe8b6)" d="M9.543 10.856c0-0.545 0.535-0.763 0.535-0.763l7.878-3.7 7.953 3.7c0 0 0.548 0.122 0.548 0.767v0.641H9.543z" />
  <path fill="var(--color22, #f4900c)" d="M25.929 12.836c0-0.584-0.505-1.057-1.127-1.057H11.129c-0.623 0-1.057 0.473-1.057 1.057 0 0.397 0.204 0.739 0.529 0.92v0.666h2.114v-0.529h2.114v0.529h2.114v-0.529h2.114v0.529h2.114v-0.529h2.114v0.529H25.4v-0.693c0.317-0.188 0.529-0.517 0.529-0.893zM27.514 24c0 0.438-0.355 0.793-0.793 0.793H9.279c-0.438 0-0.793-0.355-0.793-0.793s0.355-0.793 0.793-0.793h17.443c0.437 0 0.792 0.355 0.792 0.793z" />
  <path fill="var(--color22, #f4900c)" d="M26.457 12.2c0 0.292-0.236 0.529-0.529 0.529H10.071c-0.292 0-0.529-0.237-0.529-0.529s0.237-0.529 0.529-0.529l15.857 3e-3c0.293 1e-3 0.529 0.234 0.529 0.526zM12.186 12.814h11.629V14H12.186z" />
  <path d="M12.714 20.829c0 0.584-0.316 1.057-0.705 1.057h-0.705c-0.389 0-0.705-0.473-0.705-1.057v-8.014c0-0.584 0.316-1.057 0.705-1.057h0.705c0.389 0 0.705 0.473 0.705 1.057zM25.4 20.829c0 0.584-0.315 1.057-0.705 1.057H23.99c-0.389 0-0.705-0.473-0.705-1.057v-8.014c0-0.584 0.315-1.057 0.705-1.057h0.705c0.389 0 0.705 0.473 0.705 1.057zM16.943 20.829c0 0.584-0.316 1.057-0.705 1.057h-0.705c-0.389 0-0.705-0.473-0.705-1.057v-8.014c0-0.584 0.316-1.057 0.705-1.057h0.705c0.389 0 0.705 0.473 0.705 1.057zM21.171 20.829c0 0.584-0.316 1.057-0.705 1.057h-0.704c-0.389 0-0.705-0.473-0.705-1.057v-8.014c0-0.584 0.316-1.057 0.705-1.057h0.704c0.389 0 0.705 0.473 0.705 1.057z" />
  <path fill="var(--color13, #ffcc4d)" d="M25.929 21.357c0 0.584-0.473 1.057-1.057 1.057H11.129c-0.584 0-1.057-0.473-1.057-1.057s0.473-1.057 1.057-1.057h13.743c0.583 0 1.057 0.473 1.057 1.057z" />
  <path d="M26.986 22.414c0 0.584-0.473 1.057-1.057 1.057H10.071c-0.584 0-1.057-0.473-1.057-1.057s0.473-1.057 1.057-1.057h15.857c0.584 0 1.058 0.473 1.058 1.057z" />
  <path d="M27.514 23.207c0 0.438-0.355 0.793-0.793 0.793H9.279c-0.438 0-0.793-0.355-0.793-0.793s0.355-0.793 0.793-0.793h17.443c0.437 0 0.792 0.355 0.792 0.793z" />
  <path fill="var(--color13, #ffcc4d)" d="M25.929 12.286c0-0.584-0.505-1.057-1.127-1.057H11.129c-0.623 0-1.057 0.473-1.057 1.057 0 0.397 0.204 0.739 0.529 0.92v0.666h2.114v-0.529h2.114v0.529h2.114v-0.529h2.114v0.529h2.114v-0.529h2.114v0.529H25.4v-0.693c0.317-0.188 0.529-0.517 0.529-0.893z" />
  <path d="M9.543 11.463c0-0.545 0.535-0.763 0.535-0.763L17.956 7l7.953 3.7c0 0 0.548 0.122 0.548 0.767v0.291H9.543z" />
  <path fill="var(--color8, #ffac33)" d="M18 8.343c0 0-5.455 2.571-5.999 2.803-0.545 0.231-0.363 0.611 1e-3 0.611h11.97c0.562 0 0.429-0.429-0.017-0.661C23.509 10.865 18 8.343 18 8.343z" />
  <path d="M26.457 11.757c0 0.292-0.236 0.529-0.529 0.529H10.071c-0.292 0-0.529-0.237-0.529-0.529s0.237-0.529 0.529-0.529l15.857 3e-3c0.293 1e-3 0.529 0.234 0.529 0.526z" />
</svg>