<svg viewBox="0 0 512 512" width="32" height="32" xmlns="http://www.w3.org/2000/svg" xmlns:xlink="http://www.w3.org/1999/xlink">
  <style>
    :root, .palette0 {color: currentColor;
      --color0: #fff;
      --color1: #000;
      --color2: #fff1bc;
      --color3: #ebff00;
      --color4: #ff684f;
      --color5: #23bbff;
      --color6: #ccd6dd;
      --color7: #66757f;
      --color8: #ffac33;
      --color9: #99aab5;
      --color10: #e7ff23;
      --color11: #a0041e;
      --color12: #55acee;
      --color13: #ffcc4d;
      --color14: #677032;
      --color15: #a3a364;
      --color16: #717735;
      --color17: #662113;
      --color18: #c1694f;
      --color19: #383a18;
      --color20: #464f25;
      --color21: #ffd983;
      --color22: #f4900c;
      --color23: #ffe8b6;
    }
  </style>
  <path fill="var(--color0, #fff)" d="M356.688 19.188c-6.83-0.032-12.837 0.64-18.125 1.843-24.178 5.495-36.437 21.983-50.938 41.157-14.5 19.175-31.317 40.993-62.78 47.47C195.08 115.78 154.27 108.253 91.25 78.5 81.237 123.38 57.844 207.12 30.344 257.156c60.093 28.5 97.245 34.926 121 30.875 0.01 0 0.02 4e-3 0.03 0 21.59-5.827 34.487-20.094 47.876-43.092 17.014-29.227 32.563-72.198 60.25-123.188l16.406 8.938c-16.69 30.735-28.802 58.617-40 82.937 8.552-6.512 18.633-11.77 31.063-14.594 27.71-6.296 65.053-0.495 121.655 24.75-6.932-29.276-1.885-61.913 9.875-92.218 12.686-32.69 33.038-62.907 56.28-84.03-42.595-19.553-73.152-27.554-95.124-28.282-1.01-0.033-1.993-0.058-2.967-0.064zM484.228 33.332a10.775 10.775 0 0 0-2.664 0.266c-4.378 0.977-8.94 4.424-12.084 11.097L289.53 497.31h23.61L490.972 49.368c3.475-10.153-0.75-15.86-6.744-16.036z" />
</svg>